<?xml version="1.0" encoding="utf-8"?>
<!-- Generator: Adobe Illustrator 16.0.0, SVG Export Plug-In . SVG Version: 6.00 Build 0)  -->
<!DOCTYPE svg PUBLIC "-//W3C//DTD SVG 1.1//EN" "http://www.w3.org/Graphics/SVG/1.1/DTD/svg11.dtd">
<svg version="1.1" id="Layer_1" xmlns="http://www.w3.org/2000/svg" xmlns:xlink="http://www.w3.org/1999/xlink" x="0px" y="0px"
	 width="351.219px" height="326.814px" viewBox="0 0 351.219 326.814" enable-background="new 0 0 351.219 326.814"
	 xml:space="preserve">
<path fill="#5850EC" d="M301.872,184.22c-3.269-0.346-6.402,0.173-9.285,1.25l-30.365-19.14
	c-0.583-9.819-8.127-18.076-18.231-19.147c-3.473-0.368-6.793,0.241-9.815,1.469l-49.133-30.969
	c-0.239-10.137-7.875-18.785-18.229-19.882c-3.743-0.396-7.32,0.318-10.521,1.761l-38.885-24.51
	c0.259-0.987,0.521-1.975,0.632-3.021c1.192-11.252-6.963-21.34-18.215-22.532c-5.797-0.614-11.259,1.282-15.38,4.776L40.095,26.321
	c0.351-1.184,0.633-2.401,0.768-3.673C42.055,11.396,33.9,1.308,22.648,0.116C11.396-1.077,1.308,7.078,0.116,18.331
	c-1.192,11.251,6.963,21.34,18.215,22.532c4.357,0.461,8.522-0.507,12.082-2.485l46.878,29.549
	c-1.065,11.165,7.036,21.134,18.216,22.319c4.602,0.488,8.968-0.65,12.652-2.862l37.4,23.574c-0.606,1.604-1.088,3.273-1.278,5.059
	c-1.192,11.252,6.963,21.34,18.215,22.532c6.558,0.695,12.662-1.846,16.898-6.264l43.591,27.476
	c-0.734,1.774-1.315,3.632-1.528,5.638c-1.191,11.252,6.963,21.341,18.215,22.533c6.787,0.719,13.113-2.002,17.356-6.713
	l24.026,15.144c-0.838,1.896-1.484,3.902-1.715,6.073c-0.357,3.368,0.207,6.592,1.357,9.544l-30.774,13.715
	c-3.288-3.907-8.009-6.622-13.489-7.203c-11.252-1.192-21.34,6.962-22.532,18.215c-0.181,1.701-0.083,3.356,0.144,4.977
	l-33.343,14.859c-2.786-1.996-6.055-3.394-9.707-3.78c-11.226-1.189-21.286,6.927-22.517,18.141l-42.951,19.141
	c-2.873-2.178-6.311-3.683-10.157-4.09c-11.252-1.192-21.34,6.962-22.532,18.214s6.963,21.341,18.214,22.532
	c11.252,1.192,21.34-6.963,22.533-18.214c0.186-1.758,0.072-3.464-0.174-5.134l39.358-17.54c3.298,4.181,8.195,7.092,13.908,7.697
	c11.251,1.192,21.339-6.963,22.533-18.215c0.203-1.924,0.045-3.786-0.267-5.603l32.864-14.646c2.9,2.239,6.396,3.779,10.308,4.193
	c11.252,1.192,21.34-6.963,22.532-18.215c0.021-0.208-0.013-0.407,0.003-0.615l37.677-16.791c1.654,0.643,3.377,1.154,5.227,1.351
	c11.252,1.192,21.34-6.963,22.531-18.215C321.279,195.5,313.123,185.412,301.872,184.22z"/>
<path fill="#5850EC" d="M130.142,64.307c-0.778,1.664,0.031,3.903,0.561,5.521c1.745,5.336,4.942,9.719,10.725,11.008
	c2.106,0.47,4.351,0.292,6.507,0.292c4.12,0,8.241,0,12.361,0c6.294,0,12.589,0,18.884,0c7.825,0,15.65,0,23.477,0
	c8.713,0,17.427,0,26.141,0c8.959,0,17.918,0,26.877,0c8.562,0,17.123,0,25.685,0c7.521,0,15.042,0,22.563,0
	c5.838,0,11.676,0,17.514,0c3.512,0,7.023,0,10.536,0c0.731,0,1.463,0,2.194,0v210.825c-1.287,0-2.574,0-3.86,0
	c-3.505,0-7.01,0-10.515,0c-5.193,0-10.388,0-15.581,0c-6.354,0-12.708,0-19.062,0c-6.984,0-13.969,0-20.953,0
	c-7.087,0-14.174,0-21.26,0c-6.659,0-13.318,0-19.979,0c-5.703,0-11.406,0-17.108,0c-4.218,0-8.437,0-12.653,0
	c-1.208,0-2.416,0-3.624,0c-1.019,0-2.56-0.3-3.522-0.022c-0.927,0.267-1.929,1.211-2.801,1.668
	c-0.973,0.511-1.978,0.964-3.005,1.354c-4.108,1.565-8.58,2.136-12.95,1.65c-2.85-0.316-5.617-1.01-8.242-2.175
	c-1.806-0.802-3.376-2.233-5.356-2.617c-2.231-0.434-4.431,0.818-6.398,1.693c-2.853,1.268-5.707,2.536-8.56,3.805
	c-2.68,1.195-5.477,2.434-8.202,3.646c-1.612,0.717-3.115,1.62-4.094,3.128c-0.623,0.96-2.315,4.002-0.987,4.848
	c0.533,0.339,1.21,0.315,1.841,0.283c9.052-0.466,18.123-0.209,27.182-0.209c5.172,0,10.344,0,15.516,0c5.863,0,11.726,0,17.589,0
	c6.36,0,12.721,0,19.08,0c6.663,0,13.326,0,19.988,0c6.771,0,13.542,0,20.313,0c6.686,0,13.37,0,20.055,0c6.404,0,12.809,0,19.214,0
	c5.93,0,11.859,0,17.789,0c5.261,0,10.521,0,15.782,0c4.396,0,8.794,0,13.191,0c3.34,0,6.679,0,10.019,0c2.087,0,4.175,0,6.263,0
	c0.647,0,1.295,0,1.943,0V64.076c-1.354,0-194.709-1.393-208.729-1.393C140.195,62.682,131.353,61.721,130.142,64.307z"/>
<path fill="#5850EC" d="M96.805,101.736l0.001,156.825c0,7.602,5.528,14.075,13.036,15.267l1.052,0.167
	c0.638,0.101,1.328,0.194,1.901-0.105c0.974-0.51,1.099-1.829,1.099-2.93c-0.014-55.306-0.027-110.612-0.041-165.917
	c0-1.856-0.51-4.303-2.359-4.448"/>
<g>
</g>
<g>
</g>
<g>
</g>
<g>
</g>
<g>
</g>
<g>
</g>
<g>
</g>
<g>
</g>
<g>
</g>
<g>
</g>
<g>
</g>
<g>
</g>
<g>
</g>
<g>
</g>
<g>
</g>
</svg>
