<?xml version="1.0" encoding="utf-8"?>
<!-- Generator: Adobe Illustrator 16.0.0, SVG Export Plug-In . SVG Version: 6.00 Build 0)  -->
<!DOCTYPE svg PUBLIC "-//W3C//DTD SVG 1.1//EN" "http://www.w3.org/Graphics/SVG/1.1/DTD/svg11.dtd">
<svg version="1.1" id="Layer_1" xmlns="http://www.w3.org/2000/svg" xmlns:xlink="http://www.w3.org/1999/xlink" x="0px" y="0px"
	 width="1164.382px" height="184.132px" viewBox="0 0 1164.382 184.132" enable-background="new 0 0 1164.382 184.132"
	 xml:space="preserve">
<g>
	<path fill="#F2F2F2" d="M110.305,142.531V41.162h21.494v83.619h41.116v17.75H110.305z"/>
	<path fill="#F2F2F2" d="M248.907,142.531h-58.381V41.162h58.381v17.611h-36.887V81.03h34.321v17.611h-34.321v26.14h36.887V142.531z
		"/>
	<path fill="#F2F2F2" d="M332.11,142.531l-7.35-24.129h-36.956l-7.35,24.129h-23.158l35.777-101.785h26.278l35.916,101.785H332.11z
		 M319.63,100.375c-6.795-21.863-10.62-34.228-11.475-37.095c-0.856-2.866-1.468-5.131-1.837-6.795
		c-1.525,5.917-5.894,20.548-13.104,43.89H319.63z"/>
	<path fill="#F2F2F2" d="M427.863,114.38c0,9.152-3.293,16.363-9.88,21.633s-15.751,7.904-27.492,7.904
		c-10.816,0-20.385-2.033-28.705-6.102v-19.969c6.84,3.051,12.63,5.2,17.369,6.448c4.738,1.248,9.071,1.872,13,1.872
		c4.715,0,8.331-0.901,10.851-2.704c2.519-1.803,3.779-4.483,3.779-8.043c0-1.987-0.555-3.755-1.664-5.304s-2.739-3.039-4.888-4.473
		c-2.149-1.432-6.529-3.721-13.139-6.864c-6.195-2.912-10.84-5.708-13.937-8.39c-3.097-2.68-5.571-5.801-7.419-9.36
		c-1.849-3.56-2.773-7.719-2.773-12.48c0-8.967,3.039-16.017,9.118-21.147c6.078-5.131,14.479-7.696,25.204-7.696
		c5.27,0,10.296,0.624,15.081,1.872s9.787,3.005,15.011,5.27l-6.934,16.71c-5.408-2.219-9.88-3.767-13.417-4.646
		c-3.536-0.877-7.015-1.317-10.435-1.317c-4.068,0-7.188,0.948-9.36,2.843c-2.173,1.896-3.259,4.368-3.259,7.419
		c0,1.896,0.439,3.548,1.317,4.958c0.877,1.411,2.276,2.773,4.195,4.09c1.917,1.318,6.459,3.688,13.625,7.107
		c9.475,4.531,15.97,9.072,19.483,13.625C426.106,102.189,427.863,107.771,427.863,114.38z"/>
	<path fill="#F2F2F2" d="M485.343,142.531h-21.494V59.05h-27.526V41.162h76.547V59.05h-27.526V142.531z"/>
</g>
<g>
	<path fill="#F2F2F2" d="M621.343,114.391c0,8.459-3.109,15.162-9.325,20.107c-6.218,4.946-14.48,7.419-24.788,7.419
		c-12.388,0-21.887-1.364-28.496-4.091v-7.072c7.303,3.098,16.616,4.646,27.941,4.646c8.32,0,14.918-1.906,19.796-5.721
		c4.876-3.813,7.315-8.816,7.315-15.011c0-3.836-0.81-7.014-2.428-9.534c-1.618-2.519-4.253-4.818-7.904-6.898
		s-9.014-4.322-16.086-6.726c-10.354-3.56-17.507-7.407-21.459-11.544s-5.928-9.649-5.928-16.537c0-7.581,2.969-13.763,8.909-18.547
		c5.938-4.784,13.578-7.176,22.915-7.176c9.522,0,18.467,1.803,26.834,5.408l-2.566,6.102c-8.413-3.512-16.456-5.27-24.129-5.27
		c-7.488,0-13.451,1.733-17.889,5.2s-6.656,8.182-6.656,14.145c0,3.744,0.682,6.819,2.046,9.222c1.362,2.404,3.594,4.565,6.69,6.483
		s8.413,4.219,15.947,6.898c7.904,2.729,13.844,5.373,17.82,7.939c3.975,2.564,6.875,5.477,8.701,8.736
		C620.431,105.828,621.343,109.769,621.343,114.391z"/>
	<path fill="#F2F2F2" d="M727.981,89.708c0,13.59-2.912,24.834-8.736,33.731c-5.824,8.899-13.891,14.596-24.197,17.092
		l23.088,24.129h-11.51l-19.553-22.881l-2.287,0.139h-2.15c-14.099,0-25.168-4.68-33.211-14.041
		c-8.043-9.359-12.064-22.129-12.064-38.308c0-16.131,4.056-28.832,12.168-38.1c8.112-9.267,19.194-13.902,33.246-13.902
		c14.145,0,25.215,4.657,33.213,13.971C723.983,60.853,727.981,73.576,727.981,89.708z M645.056,89.708
		c0,14.515,3.235,25.735,9.707,33.663s15.763,11.891,27.873,11.891c12.203,0,21.529-3.929,27.978-11.787
		c6.448-7.857,9.673-19.113,9.673-33.767c0-14.606-3.225-25.804-9.673-33.593c-6.448-7.789-15.729-11.683-27.839-11.683
		c-12.064,0-21.367,3.929-27.907,11.787C648.325,64.077,645.056,75.24,645.056,89.708z"/>
	<path fill="#F2F2F2" d="M825.815,39.162v65.592c0,11.648-3.375,20.755-10.123,27.318c-6.75,6.564-16.156,9.846-28.221,9.846
		c-11.741,0-20.904-3.293-27.491-9.881c-6.587-6.586-9.88-15.773-9.88-27.561V39.162h7.141v65.592
		c0,9.754,2.705,17.346,8.113,22.777s13.058,8.146,22.949,8.146c9.661,0,17.149-2.67,22.465-8.008
		c5.315-5.34,7.975-12.746,7.975-22.223V39.162H825.815z"/>
	<path fill="#F2F2F2" d="M902.224,104.753h-41.186l-14.145,35.777h-7.836l40.77-101.785h4.508l39.938,101.785h-7.975
		L902.224,104.753z M863.603,98.375h36.264l-13.799-36.54c-1.155-2.866-2.542-6.84-4.16-11.926
		c-1.248,4.438-2.611,8.459-4.09,12.064L863.603,98.375z"/>
	<path fill="#F2F2F2" d="M945.696,96.364v44.167h-7.072V39.162h24.129c12.573,0,21.864,2.323,27.873,6.968
		s9.014,11.638,9.014,20.974c0,6.795-1.791,12.526-5.373,17.195s-9.025,8.021-16.328,10.054l27.525,46.178h-8.459l-26.139-44.167
		H945.696z M945.696,90.262h19.346c8.551,0,15.184-1.907,19.898-5.72c4.715-3.814,7.072-9.441,7.072-16.884
		c0-7.719-2.312-13.335-6.934-16.849c-4.622-3.512-12.157-5.27-22.604-5.27h-16.779V90.262z"/>
	<path fill="#F2F2F2" d="M1078.405,140.531h-55.398V39.162h55.398v6.518h-48.326v38.343h45.623v6.518h-45.623v43.474h48.326V140.531
		z"/>
	<path fill="#F2F2F2" d="M1157.31,114.391c0,8.459-3.109,15.162-9.325,20.107c-6.218,4.946-14.48,7.419-24.788,7.419
		c-12.388,0-21.887-1.364-28.496-4.091v-7.072c7.303,3.098,16.616,4.646,27.941,4.646c8.32,0,14.918-1.906,19.796-5.721
		c4.876-3.813,7.315-8.816,7.315-15.011c0-3.836-0.81-7.014-2.428-9.534c-1.618-2.519-4.253-4.818-7.904-6.898
		s-9.014-4.322-16.086-6.726c-10.354-3.56-17.507-7.407-21.459-11.544s-5.928-9.649-5.928-16.537c0-7.581,2.969-13.763,8.909-18.547
		c5.938-4.784,13.578-7.176,22.915-7.176c9.522,0,18.467,1.803,26.834,5.408l-2.566,6.102c-8.413-3.512-16.456-5.27-24.129-5.27
		c-7.488,0-13.451,1.733-17.889,5.2s-6.656,8.182-6.656,14.145c0,3.744,0.682,6.819,2.046,9.222c1.362,2.404,3.594,4.565,6.69,6.483
		s8.413,4.219,15.947,6.898c7.904,2.729,13.844,5.373,17.82,7.939c3.975,2.564,6.875,5.477,8.701,8.736
		C1156.397,105.828,1157.31,109.769,1157.31,114.391z"/>
</g>
<g>
	<g>
		<path fill="#F2F2F2" d="M4.627,38.244L22.258,0h5.798l19.927,38.244h-9.622L25.398,12.358L14.127,38.244H4.627z"/>
	</g>
	<g>
		<path fill="#F2F2F2" d="M28.024,49.014c8.51,0,15.173,2.012,19.988,6.035c4.817,4.023,7.225,9.574,7.225,16.653
			c0,11.372-6.055,18.045-18.162,20.018v0.464c14.583,1.624,21.875,9.536,21.875,23.73c0,8.086-2.553,14.305-7.659,18.655
			c-5.107,4.352-12.263,6.528-21.469,6.528c-4.217,0-7.873-0.301-10.966-0.899c-3.096-0.601-6.172-1.634-9.226-3.104v31.391H0
			V76.343c0-8.704,2.446-15.435,7.339-20.192S19.127,49.014,28.024,49.014z M27.909,57.137c-6.113,0-10.686,1.663-13.724,4.99
			c-3.037,3.327-4.554,8.181-4.554,14.564v51.466c3.597,1.896,6.953,3.201,10.066,3.916c3.114,0.718,6.334,1.074,9.662,1.074
			c6.614,0,11.594-1.45,14.941-4.352c3.344-2.902,5.019-7.389,5.019-13.461c0-6.073-1.838-10.695-5.512-13.869
			c-3.677-3.172-8.936-4.758-15.783-4.758h-6.499v-8.239h5.338c5.995,0,10.56-1.421,13.692-4.264
			c3.134-2.845,4.701-6.914,4.701-12.215c0-4.757-1.509-8.422-4.526-10.995C37.714,58.423,33.439,57.137,27.909,57.137z"/>
	</g>
</g>
<g>
</g>
<g>
</g>
<g>
</g>
<g>
</g>
<g>
</g>
</svg>
