<?xml version="1.0" encoding="utf-8"?>
<!-- Generator: Adobe Illustrator 16.0.0, SVG Export Plug-In . SVG Version: 6.00 Build 0)  -->
<!DOCTYPE svg PUBLIC "-//W3C//DTD SVG 1.1//EN" "http://www.w3.org/Graphics/SVG/1.1/DTD/svg11.dtd">
<svg version="1.1" id="Layer_1" xmlns="http://www.w3.org/2000/svg" xmlns:xlink="http://www.w3.org/1999/xlink" x="0px" y="0px"
	 width="1414px" height="428.117px" viewBox="0 0 1414 428.117" enable-background="new 0 0 1414 428.117" xml:space="preserve">
<polygon fill="#5850EC" points="515.725,93.729 515.725,202.981 583.767,202.981 583.767,226.041 490.77,226.041 490.77,93.729 "/>
<polygon fill="#5850EC" points="700.003,226.041 600.958,226.041 600.958,93.729 700.003,93.729 700.003,117.924 625.716,117.924 
	625.716,148.354 697.356,148.354 697.356,171.604 625.716,171.604 625.716,201.471 700.003,201.471 "/>
<path fill="#5850EC" d="M813.211,201.091h-69.182l-11.344,24.951h-27.026l59.353-132.313h27.216l59.353,132.313h-27.222
	L813.211,201.091z M778.617,121.515l-24.568,56.328h49.143L778.617,121.515z"/>
<g>
	<defs>
		<rect id="SVGID_1_" x="-293" y="-785.941" width="2000" height="2000"/>
	</defs>
	<clipPath id="SVGID_2_">
		<use xlink:href="#SVGID_1_"  overflow="visible"/>
	</clipPath>
	<path clip-path="url(#SVGID_2_)" fill="#5850EC" d="M942.476,125.672c-4.535-7.562-17.012-14.745-31.377-14.745
		c-18.525,0-27.411,7.753-27.411,17.579c0,11.531,13.61,14.745,29.489,16.636c27.596,3.401,53.304,10.583,53.304,42.15
		c0,29.486-26.082,42.151-55.571,42.151c-27.032,0-47.825-8.317-57.649-32.511l20.788-10.774
		c5.864,14.555,21.173,20.98,37.241,20.98c15.688,0,30.427-5.481,30.427-19.846c0-12.474-13.041-17.579-30.617-19.47
		c-27.031-3.211-51.979-10.396-51.979-40.072c0-27.216,26.842-38.37,51.22-38.559c20.604,0,41.967,5.861,51.98,26.274
		L942.476,125.672z"/>
	<polygon clip-path="url(#SVGID_2_)" fill="#5850EC" points="1019.956,116.41 977.996,116.41 977.996,93.729 1086.871,93.729 
		1086.871,116.41 1044.904,116.41 1044.904,226.042 1019.956,226.042 	"/>
	<path clip-path="url(#SVGID_2_)" fill="#5850EC" d="M580.371,301.126c-4.555-7.595-17.085-14.808-31.512-14.808
		c-18.606,0-27.53,7.785-27.53,17.654c0,11.58,13.669,14.809,29.616,16.707c27.715,3.415,53.534,10.629,53.534,42.331
		c0,29.614-26.195,42.332-55.811,42.332c-27.148,0-48.031-8.352-57.897-32.649l20.877-10.82c5.89,14.617,21.264,21.07,37.402,21.07
		c15.756,0,30.558-5.506,30.558-19.933c0-12.527-13.097-17.653-30.749-19.553c-27.148-3.225-52.204-10.441-52.204-40.246
		c0-27.332,26.957-38.534,51.441-38.725c20.692,0,42.147,5.888,52.204,26.389L580.371,301.126z"/>
	<path clip-path="url(#SVGID_2_)" fill="#5850EC" d="M754.044,333.777c0.189,15.186-3.798,30.941-12.34,43.282l15.756,15.564
		l-17.652,17.655l-16.137-15.947c-10.064,6.456-22.779,9.872-37.778,9.872c-47.268,0-68.151-34.357-68.341-68.907
		c-0.185-34.74,21.645-69.479,68.341-69.479C732.595,265.817,753.478,299.606,754.044,333.777 M642.232,335.866
		c0.381,21.831,14.808,45.178,43.661,45.178c29.998,0,44.424-25.246,43.471-48.027c-0.947-21.449-12.149-44.608-43.471-44.608
		C654.572,288.408,641.85,313.466,642.232,335.866"/>
	<path clip-path="url(#SVGID_2_)" fill="#5850EC" d="M888.807,269.232v76.125c0,39.294-24.107,59.416-57.516,59.416
		c-31.893,0-59.041-19.362-59.041-59.416v-76.125h24.871v76.125c0,23.92,13.668,36.639,34.361,36.639
		c20.691,0,32.46-13.858,32.46-36.639v-76.125H888.807z"/>
	<path clip-path="url(#SVGID_2_)" fill="#5850EC" d="M1007.63,376.868h-69.48l-11.393,25.06h-27.142l59.607-132.883h27.333
		l59.608,132.883h-27.34L1007.63,376.868z M972.887,296.95l-24.675,56.571h49.354L972.887,296.95z"/>
	<path clip-path="url(#SVGID_2_)" fill="#5850EC" d="M1175.229,401.928h-29.802l-38.726-44.422h-24.107v44.422h-25.063V268.854
		c21.074,0,42.143,0.191,63.216,0.191c31.321,0.188,47.84,21.07,47.84,44.04c0,18.224-8.352,36.639-33.604,41.766l40.246,45.369
		V401.928z M1082.594,292.393v42.523h38.153c15.946,0,22.778-10.629,22.778-21.263c0-10.629-7.022-21.261-22.778-21.261H1082.594z"
		/>
	<polygon clip-path="url(#SVGID_2_)" fill="#5850EC" points="1284.555,401.928 1185.082,401.928 1185.082,269.045 1284.555,269.045 
		1284.555,293.345 1209.947,293.345 1209.947,323.905 1281.896,323.905 1281.896,347.255 1209.947,347.255 1209.947,377.25 
		1284.555,377.25 	"/>
	<path clip-path="url(#SVGID_2_)" fill="#5850EC" d="M1389.893,301.126c-4.555-7.595-17.086-14.808-31.513-14.808
		c-18.605,0-27.529,7.785-27.529,17.654c0,11.58,13.669,14.809,29.616,16.707c27.715,3.415,53.533,10.629,53.533,42.331
		c0,29.614-26.194,42.332-55.811,42.332c-27.148,0-48.031-8.352-57.898-32.649l20.878-10.82c5.89,14.617,21.265,21.07,37.402,21.07
		c15.756,0,30.558-5.506,30.558-19.933c0-12.527-13.097-17.653-30.749-19.553c-27.147-3.225-52.204-10.441-52.204-40.246
		c0-27.332,26.958-38.534,51.441-38.725c20.692,0,42.147,5.888,52.204,26.389L1389.893,301.126z"/>
	<path clip-path="url(#SVGID_2_)" fill="#5850EC" d="M395.444,241.323c-4.282-0.454-8.387,0.226-12.163,1.638l-39.777-25.073
		c-0.764-12.863-10.647-23.679-23.884-25.082c-4.548-0.482-8.897,0.315-12.857,1.924L242.4,154.161
		c-0.314-13.279-10.316-24.608-23.878-26.045c-4.905-0.519-9.59,0.417-13.783,2.307l-50.938-32.107
		c0.338-1.294,0.682-2.588,0.827-3.958c1.562-14.741-9.121-27.955-23.861-29.517c-7.594-0.805-14.748,1.68-20.148,6.257
		L52.524,34.479c0.46-1.55,0.829-3.145,1.005-4.811c1.562-14.74-9.121-27.955-23.86-29.516C14.929-1.41,1.714,9.272,0.152,24.012
		c-1.562,14.74,9.121,27.955,23.86,29.517c5.708,0.605,11.164-0.664,15.827-3.256l61.41,38.709
		c-1.396,14.625,9.217,27.684,23.862,29.237c6.029,0.638,11.749-0.852,16.574-3.75l48.994,30.881
		c-0.795,2.103-1.426,4.288-1.674,6.627c-1.562,14.74,9.121,27.955,23.86,29.517c8.591,0.91,16.587-2.419,22.138-8.206
		l57.102,35.993c-0.962,2.323-1.723,4.758-2.001,7.386c-1.562,14.739,9.121,27.954,23.86,29.516
		c8.891,0.942,17.178-2.622,22.736-8.794l31.474,19.838c-1.097,2.484-1.945,5.113-2.247,7.957
		c-0.467,4.411,0.271,8.635,1.778,12.502l-40.313,17.967c-4.308-5.119-10.491-8.676-17.67-9.437
		c-14.739-1.561-27.955,9.121-29.517,23.861c-0.236,2.228-0.108,4.396,0.187,6.52l-43.677,19.465
		c-3.649-2.614-7.932-4.445-12.715-4.952c-14.706-1.559-27.884,9.074-29.496,23.764l-56.265,25.074
		c-3.763-2.853-8.267-4.824-13.305-5.358c-14.74-1.562-27.955,9.12-29.517,23.86c-1.562,14.739,9.121,27.956,23.86,29.517
		c14.74,1.562,27.955-9.121,29.517-23.86c0.244-2.302,0.094-4.537-0.227-6.725l51.558-22.977c4.32,5.476,10.735,9.289,18.219,10.082
		c14.74,1.563,27.955-9.12,29.517-23.86c0.267-2.521,0.059-4.959-0.349-7.34l43.052-19.187c3.799,2.934,8.379,4.951,13.502,5.494
		c14.739,1.563,27.955-9.122,29.517-23.861c0.028-0.272-0.017-0.533,0.004-0.806l49.356-21.996c2.167,0.841,4.423,1.513,6.845,1.77
		c14.739,1.562,27.955-9.121,29.517-23.86C420.867,256.099,410.184,242.885,395.444,241.323"/>
	<path clip-path="url(#SVGID_2_)" fill="#5850EC" d="M170.483,84.24c-1.02,2.179,0.041,5.113,0.734,7.233
		c2.286,6.989,6.474,12.731,14.049,14.421c2.76,0.615,5.699,0.381,8.524,0.381h16.193h24.737h30.753h34.245h35.208h33.646h29.558
		h22.942h13.802h2.875V382.45h-5.058h-13.773h-20.412h-24.969h-27.449h-27.849h-26.171h-22.412H253.08h-4.746
		c-1.335,0-3.353-0.393-4.616-0.029c-1.213,0.349-2.526,1.586-3.668,2.185c-1.275,0.67-2.59,1.263-3.936,1.775
		c-5.382,2.049-11.239,2.797-16.964,2.161c-3.733-0.414-7.358-1.323-10.797-2.85c-2.366-1.049-4.422-2.925-7.016-3.428
		c-2.924-0.567-5.805,1.072-8.382,2.218c-3.738,1.661-7.475,3.322-11.214,4.984c-3.51,1.567-7.174,3.189-10.744,4.776
		c-2.112,0.938-4.081,2.122-5.363,4.097c-0.816,1.258-3.033,5.243-1.292,6.351c0.698,0.444,1.585,0.412,2.412,0.37
		c11.858-0.609,23.74-0.272,35.607-0.272h20.325h23.042h24.995h26.183h26.61h26.271h25.169h23.303h20.674h17.281h13.124h8.204h2.545
		V83.937c-1.773,0-255.062-1.824-273.429-1.824C183.652,82.112,172.068,80.853,170.483,84.24"/>
	<path clip-path="url(#SVGID_2_)" fill="#5850EC" d="M126.811,133.271l0.002,205.437c0,9.959,7.242,18.438,17.077,19.999
		l1.378,0.218c0.836,0.133,1.74,0.256,2.49-0.137c1.276-0.668,1.44-2.397,1.44-3.838c-0.018-72.449-0.036-144.899-0.054-217.348
		c0-2.431-0.668-5.637-3.091-5.826"/>
</g>
</svg>
