<?xml version="1.0" encoding="utf-8"?>
<!-- Generator: Adobe Illustrator 16.0.0, SVG Export Plug-In . SVG Version: 6.00 Build 0)  -->
<!DOCTYPE svg PUBLIC "-//W3C//DTD SVG 1.1//EN" "http://www.w3.org/Graphics/SVG/1.1/DTD/svg11.dtd">
<svg version="1.1" id="Layer_1" xmlns="http://www.w3.org/2000/svg" xmlns:xlink="http://www.w3.org/1999/xlink" x="0px" y="0px"
	 width="642.866px" height="251.997px" viewBox="226.043 4.393 642.866 251.997"
	 enable-background="new 226.043 4.393 642.866 251.997" xml:space="preserve">
<g>
	<path fill="#5850EC" d="M325.437,114.08V22.705h19.375V98.08h37.063v16H325.437z"/>
	<path fill="#5850EC" d="M450.374,114.08h-52.625V22.705h52.625V38.58h-33.25v20.063h30.938v15.875h-30.938V98.08h33.25V114.08z"/>
	<path fill="#5850EC" d="M525.374,114.08l-6.625-21.75h-33.313l-6.625,21.75h-20.875l32.25-91.75h23.688l32.375,91.75H525.374z
		 M514.124,76.08c-6.125-19.708-9.573-30.854-10.344-33.438c-0.771-2.583-1.323-4.625-1.656-6.125
		c-1.375,5.334-5.313,18.521-11.813,39.563H514.124z"/>
	<path fill="#5850EC" d="M611.687,88.705c0,8.25-2.969,14.75-8.906,19.5s-14.198,7.125-24.781,7.125
		c-9.75,0-18.375-1.833-25.875-5.5v-18c6.166,2.75,11.385,4.688,15.656,5.813c4.271,1.125,8.177,1.688,11.719,1.688
		c4.25,0,7.51-0.813,9.781-2.438c2.271-1.625,3.406-4.041,3.406-7.25c0-1.791-0.5-3.385-1.5-4.781c-1-1.396-2.469-2.739-4.406-4.031
		c-1.938-1.291-5.886-3.354-11.844-6.188c-5.584-2.625-9.771-5.146-12.563-7.563c-2.792-2.416-5.021-5.229-6.688-8.438
		c-1.667-3.208-2.5-6.958-2.5-11.25c0-8.083,2.739-14.438,8.219-19.063c5.479-4.625,13.052-6.938,22.719-6.938
		c4.75,0,9.281,0.563,13.594,1.688s8.822,2.709,13.531,4.75l-6.25,15.063c-4.875-2-8.906-3.396-12.094-4.188
		c-3.188-0.791-6.323-1.188-9.406-1.188c-3.667,0-6.479,0.854-8.438,2.563c-1.959,1.709-2.938,3.938-2.938,6.688
		c0,1.709,0.396,3.198,1.188,4.469c0.791,1.271,2.052,2.5,3.781,3.688c1.729,1.188,5.822,3.323,12.281,6.406
		c8.541,4.084,14.396,8.178,17.563,12.281C610.103,77.716,611.687,82.747,611.687,88.705z"/>
	<path fill="#5850EC" d="M663.499,114.08h-19.375V38.83h-24.813V22.705h69V38.83h-24.813V114.08z"/>
</g>
<g>
	<path fill="#5850EC" d="M379.409,198.39c0,7.625-2.803,13.667-8.406,18.125c-5.604,4.459-13.053,6.688-22.344,6.688
		c-11.167,0-19.729-1.229-25.688-3.688v-6.375c6.583,2.792,14.979,4.188,25.188,4.188c7.5,0,13.447-1.719,17.844-5.156
		c4.396-3.438,6.594-7.947,6.594-13.531c0-3.458-0.729-6.322-2.188-8.594c-1.459-2.271-3.834-4.344-7.125-6.219
		c-3.292-1.875-8.125-3.896-14.5-6.063c-9.334-3.208-15.781-6.677-19.344-10.406c-3.563-3.729-5.344-8.697-5.344-14.906
		c0-6.833,2.677-12.406,8.031-16.719c5.354-4.313,12.239-6.469,20.656-6.469c8.583,0,16.646,1.625,24.188,4.875l-2.313,5.5
		c-7.584-3.166-14.834-4.75-21.75-4.75c-6.75,0-12.125,1.563-16.125,4.688s-6,7.375-6,12.75c0,3.375,0.614,6.146,1.844,8.313
		c1.229,2.167,3.239,4.115,6.031,5.844c2.791,1.729,7.583,3.803,14.375,6.219c7.125,2.459,12.479,4.844,16.063,7.156
		c3.583,2.313,6.197,4.938,7.844,7.875C378.586,190.671,379.409,194.224,379.409,198.39z"/>
	<path fill="#5850EC" d="M475.534,176.14c0,12.25-2.625,22.386-7.875,30.406c-5.25,8.021-12.521,13.156-21.813,15.406l20.813,21.75
		h-10.375l-17.625-20.625l-2.063,0.125h-1.938c-12.709,0-22.688-4.219-29.938-12.656s-10.875-19.947-10.875-34.531
		c0-14.541,3.656-25.989,10.969-34.344c7.313-8.354,17.302-12.531,29.969-12.531c12.75,0,22.729,4.198,29.938,12.594
		C471.93,150.13,475.534,161.599,475.534,176.14z M400.784,176.14c0,13.084,2.916,23.198,8.75,30.344
		c5.833,7.146,14.208,10.719,25.125,10.719c11,0,19.406-3.541,25.219-10.625c5.813-7.083,8.719-17.229,8.719-30.438
		c0-13.166-2.906-23.26-8.719-30.281c-5.813-7.021-14.178-10.531-25.094-10.531c-10.875,0-19.261,3.542-25.156,10.625
		C403.731,153.036,400.784,163.099,400.784,176.14z"/>
	<path fill="#5850EC" d="M563.722,130.577v59.125c0,10.5-3.042,18.709-9.125,24.625c-6.084,5.917-14.563,8.875-25.438,8.875
		c-10.584,0-18.844-2.969-24.781-8.906s-8.906-14.219-8.906-24.844v-58.875h6.438v59.125c0,8.792,2.438,15.636,7.313,20.531
		c4.875,4.896,11.771,7.344,20.688,7.344c8.708,0,15.458-2.406,20.25-7.219c4.791-4.813,7.188-11.489,7.188-20.031v-59.75H563.722z"
		/>
	<path fill="#5850EC" d="M632.597,189.702h-37.125l-12.75,32.25h-7.063l36.75-91.75h4.063l36,91.75h-7.188L632.597,189.702z
		 M597.784,183.952h32.688l-12.438-32.938c-1.042-2.583-2.292-6.166-3.75-10.75c-1.125,4-2.354,7.625-3.688,10.875L597.784,183.952z
		"/>
	<path fill="#5850EC" d="M671.784,182.14v39.813h-6.375v-91.375h21.75c11.333,0,19.708,2.094,25.125,6.281
		c5.416,4.188,8.125,10.49,8.125,18.906c0,6.125-1.615,11.292-4.844,15.5c-3.229,4.209-8.136,7.229-14.719,9.063l24.813,41.625
		h-7.625l-23.563-39.813H671.784z M671.784,176.64h17.438c7.708,0,13.688-1.719,17.938-5.156s6.375-8.51,6.375-15.219
		c0-6.958-2.084-12.021-6.25-15.188c-4.167-3.166-10.959-4.75-20.375-4.75h-15.125V176.64z"/>
	<path fill="#5850EC" d="M791.409,221.952h-49.938v-91.375h49.938v5.875h-43.563v34.563h41.125v5.875h-41.125v39.188h43.563V221.952
		z"/>
	<path fill="#5850EC" d="M862.534,198.39c0,7.625-2.803,13.667-8.406,18.125c-5.604,4.459-13.053,6.688-22.344,6.688
		c-11.167,0-19.729-1.229-25.688-3.688v-6.375c6.583,2.792,14.979,4.188,25.188,4.188c7.5,0,13.447-1.719,17.844-5.156
		c4.396-3.438,6.594-7.947,6.594-13.531c0-3.458-0.729-6.322-2.188-8.594c-1.459-2.271-3.834-4.344-7.125-6.219
		c-3.292-1.875-8.125-3.896-14.5-6.063c-9.334-3.208-15.781-6.677-19.344-10.406c-3.563-3.729-5.344-8.697-5.344-14.906
		c0-6.833,2.677-12.406,8.031-16.719c5.354-4.313,12.239-6.469,20.656-6.469c8.583,0,16.646,1.625,24.188,4.875l-2.313,5.5
		c-7.584-3.166-14.834-4.75-21.75-4.75c-6.75,0-12.125,1.563-16.125,4.688s-6,7.375-6,12.75c0,3.375,0.614,6.146,1.844,8.313
		c1.229,2.167,3.239,4.115,6.031,5.844c2.791,1.729,7.583,3.803,14.375,6.219c7.125,2.459,12.479,4.844,16.063,7.156
		c3.583,2.313,6.197,4.938,7.844,7.875C861.711,190.671,862.534,194.224,862.534,198.39z"/>
</g>
<g>
	<g>
		<path fill="#5850EC" d="M230.074,84.007l15.362-33.32h5.051l17.362,33.32h-8.383l-11.293-22.553l-9.821,22.553H230.074z"/>
	</g>
	<g>
		<path fill="#5850EC" d="M250.46,93.391c7.414,0,13.22,1.753,17.416,5.258c4.196,3.505,6.294,8.341,6.294,14.509
			c0,9.909-5.275,15.722-15.823,17.441v0.404c12.706,1.416,19.059,8.308,19.059,20.676c0,7.045-2.225,12.462-6.673,16.254
			c-4.449,3.791-10.684,5.687-18.705,5.687c-3.674,0-6.858-0.261-9.554-0.783c-2.697-0.522-5.376-1.424-8.038-2.705v27.35h-8.392
			v-80.279c0-7.583,2.131-13.447,6.395-17.593C236.701,95.463,242.708,93.391,250.46,93.391z M250.359,100.468
			c-5.326,0-9.311,1.449-11.956,4.348c-2.646,2.899-3.968,7.128-3.968,12.689v44.841c3.134,1.652,6.058,2.789,8.771,3.413
			c2.712,0.624,5.518,0.935,8.417,0.935c5.763,0,10.102-1.264,13.018-3.791c2.915-2.528,4.373-6.438,4.373-11.729
			s-1.601-9.318-4.803-12.083c-3.202-2.763-7.785-4.145-13.75-4.145h-5.662v-7.179h4.651c5.224,0,9.201-1.238,11.931-3.715
			c2.73-2.478,4.095-6.024,4.095-10.642c0-4.146-1.314-7.338-3.943-9.58C258.903,101.589,255.179,100.468,250.359,100.468z"/>
	</g>
</g>
</svg>
