<?xml version="1.0" encoding="utf-8"?>
<!-- Generator: Adobe Illustrator 16.0.0, SVG Export Plug-In . SVG Version: 6.00 Build 0)  -->
<!DOCTYPE svg PUBLIC "-//W3C//DTD SVG 1.1//EN" "http://www.w3.org/Graphics/SVG/1.1/DTD/svg11.dtd">
<svg version="1.1" id="Layer_1" xmlns="http://www.w3.org/2000/svg" xmlns:xlink="http://www.w3.org/1999/xlink" x="0px" y="0px"
	 width="916.818px" height="273.159px" viewBox="0 0 916.818 273.159" enable-background="new 0 0 916.818 273.159"
	 xml:space="preserve">
<g>
	<g>
		<g>
			<path fill="#5850EC" d="M334.197,25.923h18.408v79.155h26.823v17.554h-45.231V25.923z"/>
			<path fill="#5850EC" d="M393.498,25.923h52.792v18.013h-34.515v17.488h34.515v17.685h-34.515v25.443h34.515v18.081h-52.792
				V25.923z"/>
			<path fill="#5850EC" d="M492.955,25.923h18.666l37.197,96.709h-19.132l-7.564-19.92h-39.464l-7.865,19.92h-19.132L492.955,25.923
				z M502.402,51.563l-12.974,33.201h25.872L502.402,51.563z"/>
			<path fill="#5850EC" d="M613.807,39.071l-13.634,12.031c-4.787-6.66-9.658-9.993-14.623-9.993c-2.415,0-4.39,0.647-5.925,1.939
				c-1.539,1.294-2.309,2.753-2.309,4.373c0,1.622,0.55,3.157,1.649,4.603c1.492,1.928,5.992,6.071,13.498,12.424
				c7.023,5.874,11.282,9.578,12.779,11.111c3.729,3.77,6.373,7.375,7.934,10.815c1.561,3.442,2.338,7.2,2.338,11.276
				c0,7.933-2.74,14.486-8.225,19.656c-5.484,5.174-12.64,7.758-21.457,7.758c-6.889,0-12.89-1.688-18.002-5.062
				c-5.108-3.375-9.485-8.678-13.131-15.909l15.474-9.337c4.655,8.548,10.01,12.822,16.069,12.822c3.159,0,5.814-0.922,7.967-2.762
				c2.148-1.841,3.227-3.966,3.227-6.377c0-2.192-0.812-4.383-2.436-6.576c-1.628-2.19-5.205-5.544-10.737-10.058
				c-10.538-8.591-17.342-15.22-20.416-19.888c-3.075-4.667-4.609-9.325-4.609-13.97c0-6.707,2.558-12.458,7.671-17.258
				c5.108-4.799,11.418-7.199,18.924-7.199c4.825,0,9.422,1.118,13.786,3.354C603.987,29.078,608.715,33.155,613.807,39.071z"/>
			<path fill="#5850EC" d="M623.537,25.923h53.448v18.144h-17.617v78.565h-18.675V44.067h-17.156V25.923z"/>
		</g>
		<g>
			<path fill="#5850EC" d="M334.197,247.518l8.216-4.932c5.785,10.652,12.471,15.977,20.053,15.977c3.244,0,6.288-0.755,9.139-2.269
				c2.846-1.512,5.015-3.537,6.508-6.081c1.489-2.541,2.237-5.237,2.237-8.086c0-3.243-1.1-6.421-3.29-9.533
				c-3.023-4.295-8.546-9.467-16.568-15.516c-8.064-6.092-13.08-10.496-15.055-13.215c-3.417-4.557-5.125-9.487-5.125-14.793
				c0-4.207,1.006-8.041,3.023-11.504c2.013-3.462,4.855-6.191,8.513-8.186c3.658-1.993,7.637-2.991,11.934-2.991
				c4.559,0,8.817,1.129,12.788,3.385c3.967,2.259,8.162,6.411,12.589,12.46l-7.891,5.982c-3.637-4.821-6.736-7.999-9.303-9.532
				c-2.563-1.535-5.358-2.303-8.382-2.303c-3.899,0-7.087,1.185-9.565,3.55c-2.478,2.369-3.713,5.284-3.713,8.746
				c0,2.104,0.436,4.142,1.315,6.114c0.875,1.971,2.474,4.119,4.799,6.442c1.269,1.227,5.434,4.449,12.488,9.663
				c8.373,6.181,14.116,11.683,17.228,16.503c3.108,4.821,4.665,9.665,4.665,14.528c0,7.014-2.66,13.107-7.984,18.277
				c-5.329,5.174-11.803,7.758-19.432,7.758c-5.874,0-11.198-1.567-15.972-4.7C342.634,260.13,338.227,254.882,334.197,247.518z"/>
			<path fill="#5850EC" d="M492.292,255.026l14.348,18.133H494.74l-9.845-12.502c-7.899,4.873-16.797,7.308-26.692,7.308
				c-14.319,0-26.405-4.908-36.258-14.726c-9.849-9.819-14.775-21.695-14.775-35.634c0-9.29,2.254-17.915,6.766-25.87
				c4.512-7.956,10.657-14.168,18.429-18.638c7.777-4.473,16.306-6.707,25.593-6.707c14.322,0,26.4,4.898,36.232,14.694
				c9.832,9.795,14.75,21.838,14.75,36.125c0,7.453-1.345,14.269-4.043,20.446C502.204,243.836,498.001,249.625,492.292,255.026z
				 M486.312,247.464c8.424-8.203,12.636-18.316,12.636-30.339c0-7.68-1.784-14.624-5.357-20.832
				c-3.573-6.209-8.602-11.179-15.089-14.908c-6.486-3.728-13.324-5.593-20.51-5.593c-7.235,0-14.048,1.853-20.446,5.559
				c-6.402,3.707-11.396,8.729-14.991,15.067c-3.595,6.339-5.392,13.389-5.392,21.152c0,11.494,3.967,21.199,11.9,29.116
				c7.933,7.918,17.511,11.876,28.73,11.876c7.671,0,14.687-1.864,21.047-5.595l-21.533-27.343h11.727L486.312,247.464z"/>
			<path fill="#5850EC" d="M528.866,168.824h9.663v58.381c0,6.925,0.131,11.242,0.394,12.95c0.482,3.813,1.599,7.001,3.354,9.566
				c1.755,2.564,4.448,4.713,8.085,6.442c3.642,1.731,7.299,2.597,10.982,2.597c3.197,0,6.268-0.679,9.202-2.039
				c2.935-1.357,5.392-3.241,7.362-5.653c1.975-2.408,3.421-5.324,4.343-8.743c0.655-2.455,0.985-7.496,0.985-15.12v-58.381h9.663
				v58.381c0,8.633-0.846,15.612-2.529,20.938c-1.691,5.324-5.065,9.959-10.128,13.904c-5.062,3.946-11.185,5.917-18.374,5.917
				c-7.802,0-14.488-1.863-20.053-5.587c-5.565-3.726-9.291-8.656-11.177-14.792c-1.181-3.771-1.772-10.563-1.772-20.381V168.824z"
				/>
			<path fill="#5850EC" d="M656.209,168.824l45.101,96.709h-10.438l-15.211-31.82h-41.662l-15.067,31.82h-10.779l45.692-96.709
				H656.209z M654.991,189.37l-16.573,35.008h33.065L654.991,189.37z"/>
			<path fill="#5850EC" d="M716.825,168.824h19.262c10.741,0,18.015,0.439,21.829,1.315c5.743,1.316,10.407,4.135,14.002,8.459
				c3.595,4.322,5.392,9.645,5.392,15.964c0,5.268-1.239,9.896-3.713,13.89c-2.479,3.994-6.018,7.01-10.619,9.05
				c-4.601,2.042-10.956,3.085-19.067,3.127l34.782,44.904h-11.959l-34.778-44.904h-5.463v44.904h-9.667V168.824z M726.492,178.29
				v32.873l16.657,0.131c6.453,0,11.228-0.613,14.323-1.84c3.095-1.226,5.51-3.188,7.243-5.884c1.734-2.696,2.602-5.709,2.602-9.041
				c0-3.244-0.88-6.189-2.635-8.843c-1.755-2.651-4.06-4.546-6.914-5.686s-7.596-1.711-14.222-1.711H726.492z"/>
			<path fill="#5850EC" d="M798.081,168.824h55.424v9.466h-45.756v30.309h45.362v9.468h-45.362v38h45.362v9.467h-55.03V168.824z"/>
			<path fill="#5850EC" d="M860.216,247.518l8.217-4.932c5.785,10.652,12.471,15.977,20.053,15.977c3.243,0,6.288-0.755,9.139-2.269
				c2.846-1.512,5.015-3.537,6.508-6.081c1.488-2.541,2.237-5.237,2.237-8.086c0-3.243-1.1-6.421-3.29-9.533
				c-3.023-4.295-8.547-9.467-16.568-15.516c-8.064-6.092-13.08-10.496-15.055-13.215c-3.417-4.557-5.126-9.487-5.126-14.793
				c0-4.207,1.007-8.041,3.024-11.504c2.013-3.462,4.854-6.191,8.512-8.186c3.658-1.993,7.638-2.991,11.934-2.991
				c4.559,0,8.817,1.129,12.788,3.385c3.967,2.259,8.162,6.411,12.59,12.46l-7.892,5.982c-3.637-4.821-6.736-7.999-9.303-9.532
				c-2.563-1.535-5.358-2.303-8.382-2.303c-3.899,0-7.088,1.185-9.565,3.55c-2.479,2.369-3.713,5.284-3.713,8.746
				c0,2.104,0.436,4.142,1.314,6.114c0.876,1.971,2.475,4.119,4.801,6.442c1.269,1.227,5.434,4.449,12.487,9.663
				c8.373,6.181,14.115,11.683,17.228,16.503c3.108,4.821,4.665,9.665,4.665,14.528c0,7.014-2.66,13.107-7.984,18.277
				c-5.328,5.174-11.803,7.758-19.431,7.758c-5.874,0-11.198-1.567-15.973-4.7C868.652,260.13,864.245,254.882,860.216,247.518z"/>
		</g>
	</g>
	<path fill="#5850EC" d="M231.393,141.209c-2.505-0.265-4.907,0.133-7.117,0.958L201,127.498
		c-0.447-7.527-6.23-13.856-13.975-14.678c-2.661-0.282-5.207,0.185-7.524,1.126L141.84,90.207
		c-0.184-7.771-6.036-14.399-13.973-15.24c-2.869-0.304-5.611,0.244-8.064,1.35L89.996,57.53c0.198-0.757,0.398-1.515,0.484-2.316
		c0.914-8.625-5.337-16.357-13.962-17.272c-4.443-0.471-8.63,0.983-11.789,3.662L30.734,20.176c0.27-0.907,0.485-1.841,0.588-2.815
		C32.236,8.735,25.985,1.002,17.36,0.089C8.736-0.826,1.003,5.425,0.089,14.051c-0.914,8.625,5.337,16.358,13.962,17.271
		c3.34,0.354,6.532-0.388,9.261-1.905l35.934,22.65c-0.817,8.557,5.393,16.199,13.963,17.107c3.528,0.375,6.875-0.498,9.699-2.194
		l28.667,18.07c-0.464,1.23-0.834,2.509-0.979,3.878c-0.914,8.625,5.337,16.357,13.962,17.271c5.026,0.533,9.706-1.415,12.954-4.802
		l33.413,21.062c-0.563,1.36-1.008,2.784-1.171,4.321c-0.915,8.625,5.337,16.359,13.962,17.272
		c5.203,0.551,10.051-1.535,13.304-5.146l18.417,11.608c-0.642,1.452-1.138,2.992-1.314,4.656c-0.273,2.582,0.159,5.052,1.04,7.315
		L191.572,173c-2.521-2.994-6.138-5.075-10.339-5.521c-8.625-0.913-16.358,5.337-17.271,13.963
		c-0.138,1.304-0.064,2.573,0.109,3.814l-25.558,11.39c-2.136-1.53-4.641-2.601-7.44-2.897c-8.605-0.912-16.316,5.31-17.26,13.906
		L80.89,222.325c-2.202-1.67-4.837-2.822-7.786-3.134c-8.625-0.915-16.357,5.337-17.271,13.96
		c-0.914,8.627,5.337,16.359,13.961,17.273c8.625,0.913,16.358-5.338,17.272-13.963c0.143-1.348,0.055-2.655-0.133-3.936
		l30.169-13.444c2.528,3.205,6.282,5.437,10.661,5.9c8.625,0.914,16.358-5.337,17.271-13.963c0.157-1.475,0.036-2.901-0.203-4.294
		l25.192-11.227c2.222,1.716,4.903,2.896,7.9,3.214c8.625,0.914,16.357-5.338,17.271-13.962c0.017-0.159-0.01-0.313,0.002-0.472
		l28.881-12.87c1.268,0.492,2.588,0.885,4.006,1.034c8.625,0.914,16.358-5.337,17.271-13.962
		C246.269,149.856,240.018,142.124,231.393,141.209z"/>
	<path fill="#5850EC" d="M99.757,49.293c-0.596,1.275,0.024,2.992,0.43,4.232c1.338,4.09,3.789,7.45,8.221,8.438
		c1.615,0.36,3.335,0.223,4.988,0.223c3.158,0,6.316,0,9.475,0c4.825,0,9.65,0,14.475,0c5.999,0,11.997,0,17.995,0
		c6.68,0,13.358,0,20.038,0c6.867,0,13.734,0,20.602,0c6.563,0,13.125,0,19.688,0c5.765,0,11.53,0,17.295,0c4.475,0,8.95,0,13.425,0
		c2.691,0,5.383,0,8.075,0c0.561,0,1.122,0,1.682,0V223.79c-0.986,0-1.973,0-2.959,0c-2.686,0-5.373,0-8.06,0
		c-3.981,0-7.962,0-11.943,0c-4.87,0-9.74,0-14.611,0c-5.354,0-10.708,0-16.062,0c-5.432,0-10.864,0-16.296,0
		c-5.104,0-10.209,0-15.313,0c-4.371,0-8.743,0-13.114,0c-3.233,0-6.466,0-9.699,0c-0.926,0-1.852,0-2.778,0
		c-0.781,0-1.961-0.229-2.7-0.017c-0.71,0.204-1.479,0.929-2.146,1.278c-0.747,0.392-1.516,0.738-2.304,1.039
		c-3.15,1.199-6.577,1.637-9.927,1.264c-2.185-0.242-4.305-0.772-6.318-1.666c-1.385-0.615-2.588-1.712-4.105-2.006
		c-1.71-0.332-3.396,0.627-4.904,1.297c-2.188,0.973-4.375,1.944-6.562,2.918c-2.054,0.915-4.198,1.864-6.287,2.793
		c-1.236,0.55-2.388,1.242-3.138,2.397c-0.478,0.736-1.775,3.068-0.757,3.717c0.409,0.259,0.928,0.241,1.412,0.216
		c6.939-0.357,13.892-0.159,20.835-0.159c3.965,0,7.929,0,11.894,0c4.494,0,8.988,0,13.483,0c4.875,0,9.75,0,14.626,0
		c5.106,0,10.214,0,15.321,0c5.19,0,10.38,0,15.571,0c5.124,0,10.247,0,15.372,0c4.909,0,9.818,0,14.728,0c4.545,0,9.09,0,13.636,0
		c4.033,0,8.065,0,12.097,0c3.371,0,6.741,0,10.112,0c2.56,0,5.12,0,7.679,0c1.6,0,3.201,0,4.801,0c0.496,0,0.993,0,1.489,0V49.116
		c-1.038,0-149.25-1.068-159.996-1.068C107.463,48.047,100.685,47.311,99.757,49.293z"/>
	<path fill="#5850EC" d="M74.203,77.984l0.001,120.21c0,5.827,4.237,10.79,9.992,11.703l0.806,0.127
		c0.489,0.077,1.019,0.15,1.458-0.08c0.747-0.391,0.842-1.401,0.842-2.246c-0.011-42.394-0.021-84.787-0.032-127.18
		c0-1.422-0.391-3.298-1.808-3.409"/>
</g>
<g>
</g>
<g>
</g>
<g>
</g>
<g>
</g>
<g>
</g>
</svg>
