<?xml version="1.0" encoding="utf-8"?>
<!-- Generator: Adobe Illustrator 16.0.0, SVG Export Plug-In . SVG Version: 6.00 Build 0)  -->
<!DOCTYPE svg PUBLIC "-//W3C//DTD SVG 1.1//EN" "http://www.w3.org/Graphics/SVG/1.1/DTD/svg11.dtd">
<svg version="1.1" id="Layer_1" xmlns="http://www.w3.org/2000/svg" xmlns:xlink="http://www.w3.org/1999/xlink" x="0px" y="0px"
	 width="294.077px" height="840.484px" viewBox="0 0 294.077 840.484" enable-background="new 0 0 294.077 840.484"
	 xml:space="preserve">
<g>
	<g>
		<g>
			<path fill="#5850EC" d="M23.081,190.781L111.033,0h28.925l99.406,190.781h-47.999L126.7,61.65L70.472,190.781H23.081z"/>
		</g>
		<g>
			<path fill="#5850EC" d="M139.799,244.505c42.451,0,75.692,10.034,99.711,30.105c24.03,20.071,36.042,47.757,36.042,83.07
				c0,56.735-30.203,90.017-90.6,99.858v2.318c72.75,8.098,109.124,47.566,109.124,118.381c0,40.335-12.735,71.357-38.204,93.057
				c-25.479,21.709-61.176,32.571-107.098,32.571c-21.036,0-39.274-1.501-54.706-4.492c-15.445-2.99-30.788-8.145-46.023-15.481
				v156.592H0V380.84c0-43.419,12.201-77,36.612-100.733C61.023,256.372,95.417,244.505,139.799,244.505z M139.224,285.027
				c-30.495,0-53.307,8.301-68.46,24.893c-15.148,16.602-22.718,40.815-22.718,72.654v256.743
				c17.941,9.461,34.683,15.97,50.215,19.534c15.533,3.578,31.598,5.36,48.198,5.36c32.994,0,57.837-7.24,74.535-21.708
				c16.682-14.479,25.037-36.859,25.037-67.149c0-30.303-9.17-53.354-27.497-69.188c-18.342-15.822-44.576-23.734-78.735-23.734
				h-32.417v-41.105h26.63c29.905,0,52.675-7.084,68.304-21.271c15.634-14.185,23.452-34.49,23.452-60.934
				c0-23.724-7.526-42.011-22.578-54.843C188.138,291.448,166.813,285.027,139.224,285.027z"/>
		</g>
	</g>
</g>
<g>
</g>
<g>
</g>
<g>
</g>
<g>
</g>
<g>
</g>
<g>
</g>
<g>
</g>
<g>
</g>
<g>
</g>
<g>
</g>
<g>
</g>
<g>
</g>
<g>
</g>
<g>
</g>
<g>
</g>
</svg>
